<?xml version="1.0" standalone="no"?>
<!DOCTYPE svg PUBLIC "-//W3C//DTD SVG 20010904//EN"
 "http://www.w3.org/TR/2001/REC-SVG-20010904/DTD/svg10.dtd">
<svg version="1.0" xmlns="http://www.w3.org/2000/svg"
 width="940.000000pt" height="378.000000pt" viewBox="0 0 940.000000 378.000000"
 preserveAspectRatio="xMidYMid meet">

<g transform="translate(0.000000,378.000000) scale(0.100000,-0.100000)"
fill="#000000" stroke="none">
<path d="M7987 3169 c6 -8 28 -63 48 -122 21 -60 45 -111 53 -114 8 -4 30 -2
50 3 35 9 36 12 73 119 21 60 35 112 32 115 -2 3 -64 7 -136 9 -109 3 -129 1
-120 -10z"/>
<path d="M8265 3175 c6 -2 44 -11 85 -20 41 -10 80 -21 86 -26 7 -6 7 -37 -2
-106 -20 -150 -19 -160 17 -179 33 -16 38 -14 109 56 26 26 104 90 110 90 3 0
37 -34 73 -75 l67 -76 -59 -77 c-97 -128 -94 -120 -64 -170 21 -35 30 -42 47
-38 46 11 201 25 207 18 5 -5 26 -98 42 -186 2 -11 -67 -48 -135 -71 -26 -9
-50 -20 -53 -25 -3 -5 -2 -40 1 -79 6 -60 10 -72 28 -77 104 -32 186 -68 186
-81 0 -8 -7 -55 -16 -105 l-17 -89 -117 7 -117 7 -18 -46 -18 -47 59 -71 c107
-130 100 -114 71 -157 -15 -20 -42 -58 -61 -84 -25 -34 -32 -49 -23 -55 6 -4
64 -9 127 -11 l115 -3 46 59 c25 32 54 72 64 89 21 35 28 21 -77 151 l-57 70
16 41 16 40 121 3 120 3 12 75 c23 141 29 130 -91 170 l-105 34 -2 48 c-1 26
-2 58 -2 70 -1 18 14 28 89 61 50 21 93 41 97 45 7 7 -36 209 -47 220 -3 4
-61 7 -127 7 -113 1 -122 3 -131 22 -8 18 3 37 62 118 l72 97 -24 31 c-14 18
-47 56 -74 86 l-49 54 -113 5 -114 5 7 58 6 58 -68 20 c-118 35 -155 41 -272
40 -63 0 -110 -2 -105 -4z"/>
<path d="M7614 2920 c26 -17 72 -49 101 -70 30 -22 58 -40 62 -40 4 0 19 9 32
19 21 16 23 23 16 69 l-7 52 -126 0 -126 0 48 -30z"/>
<path d="M524 2794 c-18 -14 -18 -14 6 -3 31 14 36 19 24 19 -6 0 -19 -7 -30
-16z"/>
<path d="M1323 2803 c9 -2 25 -2 35 0 9 3 1 5 -18 5 -19 0 -27 -2 -17 -5z"/>
<path d="M486 2755 c-9 -26 -7 -32 5 -12 6 10 9 21 6 23 -2 3 -7 -2 -11 -11z"/>
<path d="M7069 2764 l-26 -5 -8 -580 c-4 -319 -4 -583 0 -587 4 -4 61 -7 128
-7 107 0 127 3 164 22 51 28 109 97 133 160 17 46 20 48 60 51 26 2 40 7 37
15 -2 7 -18 11 -37 9 -31 -3 -32 -3 -25 25 39 157 39 452 -2 621 -5 20 -1 22
30 22 20 0 39 5 42 10 4 6 -11 10 -39 10 -44 0 -45 0 -70 55 -35 76 -72 122
-124 152 -38 23 -57 26 -141 29 -53 1 -108 0 -122 -2z m179 -250 c62 -17 98
-173 90 -385 -6 -150 -27 -228 -69 -264 -17 -14 -39 -25 -50 -25 -18 0 -19 11
-19 340 0 361 -2 347 48 334z"/>
<path d="M1433 2670 c0 -36 2 -50 4 -32 2 17 2 47 0 65 -2 17 -4 3 -4 -33z"/>
<path d="M473 2665 c0 -33 2 -45 4 -27 2 18 2 45 0 60 -2 15 -4 0 -4 -33z"/>
<path d="M5218 2710 c-135 -41 -209 -196 -224 -470 -10 -186 17 -365 72 -470
51 -98 110 -140 198 -140 35 0 73 7 90 15 15 8 30 15 32 15 2 0 15 -22 29 -50
14 -27 29 -50 33 -50 4 0 28 20 52 45 l44 45 -34 64 -34 64 16 53 c30 94 40
189 40 349 0 242 -37 384 -121 470 -60 62 -122 81 -193 60z m78 -238 c41 -27
71 -208 59 -362 -4 -47 -8 -87 -10 -88 -2 -2 -11 11 -20 28 l-17 32 -49 -48
-48 -48 31 -57 c35 -64 33 -81 -8 -55 -47 31 -57 75 -62 266 -5 186 9 282 45
322 16 18 59 24 79 10z"/>
<path d="M5948 2179 l-3 -541 24 -10 c28 -10 141 -7 141 5 0 4 0 250 0 547 l0
540 -80 0 -80 0 -2 -541z"/>
<path d="M1069 2673 c-13 -16 -12 -17 4 -4 9 7 17 15 17 17 0 8 -8 3 -21 -13z"/>
<path d="M8072 2669 c-109 -21 -235 -124 -287 -236 -125 -263 -31 -576 208
-693 61 -30 76 -33 153 -32 98 0 122 12 75 37 -163 84 -262 326 -222 537 28
145 130 288 244 342 27 13 45 26 40 29 -11 7 -131 27 -153 26 -8 -1 -34 -5
-58 -10z"/>
<path d="M4643 2663 c-81 -4 -83 -4 -83 -29 0 -14 -12 -80 -26 -147 -104 -498
-161 -793 -155 -800 4 -4 43 -7 87 -5 76 3 79 4 82 28 2 14 7 49 13 78 l10 52
89 0 89 0 6 -47 c4 -27 10 -64 14 -83 l7 -35 83 -5 c51 -3 85 -1 87 5 2 6 -41
231 -95 500 -73 363 -102 490 -112 491 -8 0 -51 -1 -96 -3z m27 -287 c0 -18 7
-84 15 -147 9 -63 19 -135 22 -161 l6 -48 -58 0 c-42 0 -56 3 -52 13 2 7 15
96 28 199 13 103 27 184 31 182 4 -3 8 -20 8 -38z"/>
<path d="M6538 2653 c-16 -4 -18 -24 -20 -191 l-3 -187 -122 -3 -123 -3 0 -89
0 -90 125 0 125 0 0 -190 0 -190 60 0 61 0 -1 188 -2 187 127 3 126 3 -3 92
-3 92 -125 1 -125 0 -3 192 -2 192 -38 -1 c-20 -1 -45 -3 -54 -6z"/>
<path d="M3977 2473 c-15 -93 -32 -204 -38 -248 -6 -44 -12 -82 -14 -83 -2 -2
-6 16 -9 40 -23 163 -65 440 -68 444 -2 2 -50 1 -106 -3 -88 -5 -102 -8 -102
-23 0 -10 -15 -186 -34 -391 -19 -206 -36 -401 -38 -434 l-3 -60 76 -3 77 -3
6 53 c3 29 10 134 16 233 14 247 21 327 26 322 3 -3 11 -45 19 -93 27 -176 85
-506 90 -515 4 -5 30 -9 59 -9 l54 0 6 48 c4 26 20 128 36 227 16 99 34 218
41 265 17 119 23 84 44 -250 9 -151 18 -281 20 -287 3 -9 30 -13 86 -13 l82 0
-6 58 c-3 31 -23 239 -43 462 -20 223 -38 411 -40 418 -2 8 -33 12 -107 12
l-104 0 -26 -167z"/>
<path d="M3158 2620 c-101 -12 -177 -101 -218 -253 -20 -72 -22 -99 -17 -227
5 -164 25 -244 80 -327 62 -93 194 -130 293 -82 115 55 171 224 161 479 -7
174 -29 250 -94 338 -41 55 -119 82 -205 72z m69 -205 c36 -25 53 -103 53
-244 -1 -139 -9 -192 -38 -230 -34 -46 -91 -40 -119 12 -22 41 -32 312 -13
385 20 81 67 112 117 77z"/>
<path d="M1330 2565 c-17 -18 -24 -36 -23 -62 1 -50 32 -78 84 -78 52 0 79 30
79 85 0 73 -90 108 -140 55z"/>
<path d="M2377 2433 c-4 -75 -7 -257 -7 -405 l0 -268 63 -1 c34 0 72 -2 85 -5
l22 -4 0 187 c0 102 2 184 5 181 3 -2 33 -85 68 -184 l63 -179 84 -7 c46 -4
86 -5 89 -3 4 5 -38 132 -94 286 l-32 85 38 42 c55 63 75 172 47 264 -16 55
-78 122 -126 136 -22 7 -98 12 -169 12 l-130 0 -6 -137z m222 -24 c36 -13 51
-41 51 -98 0 -44 -29 -77 -78 -87 l-32 -6 0 101 c0 110 0 110 59 90z"/>
<path d="M1849 2543 l-47 -4 -7 -352 c-4 -194 -6 -363 -4 -377 4 -24 8 -25 82
-30 43 -3 81 -3 83 -1 2 2 4 68 4 146 l0 142 65 6 c143 14 215 93 215 239 -1
113 -45 186 -137 225 -31 12 -138 15 -254 6z m167 -143 c28 0 54 -39 54 -79 0
-22 -3 -47 -6 -56 -8 -19 -55 -45 -84 -45 -19 0 -20 6 -20 88 0 92 4 106 28
97 7 -3 20 -5 28 -5z"/>
<path d="M780 2365 c-11 -13 -10 -14 4 -9 9 3 16 10 16 15 0 13 -6 11 -20 -6z"/>
<path d="M925 2318 c-11 -6 -28 -19 -38 -29 -10 -11 -26 -19 -36 -19 -39 0
-72 -71 -51 -110 9 -17 9 -29 0 -50 -7 -16 -9 -38 -5 -50 9 -27 44 -60 66 -60
9 0 28 -9 42 -20 39 -31 90 -26 120 10 14 17 32 30 40 30 8 0 25 8 38 19 20
16 23 27 23 106 0 80 -1 89 -23 106 -13 10 -32 19 -42 19 -11 0 -22 7 -26 15
-6 17 -54 45 -75 45 -7 0 -22 -6 -33 -12z"/>
<path d="M366 2304 c-43 -42 -42 -90 1 -124 78 -61 178 46 108 115 -28 29 -85
34 -109 9z"/>
<path d="M1670 2293 c13 -18 25 -33 27 -33 8 0 -17 38 -33 51 -11 9 -9 2 6
-18z"/>
<path d="M8551 2274 c0 -11 3 -14 6 -6 3 7 2 16 -1 19 -3 4 -6 -2 -5 -13z"/>
<path d="M1686 2195 c-9 -26 -7 -32 5 -12 6 10 9 21 6 23 -2 3 -7 -2 -11 -11z"/>
<path d="M1210 2134 c0 -8 5 -12 10 -9 6 4 8 11 5 16 -9 14 -15 11 -15 -7z"/>
<path d="M200 2059 c0 -13 5 -31 10 -39 7 -11 8 -5 4 20 -8 43 -14 51 -14 19z"/>
<path d="M800 1890 c0 -5 5 -10 11 -10 5 0 7 5 4 10 -3 6 -8 10 -11 10 -2 0
-4 -4 -4 -10z"/>
<path d="M1006 1689 c-55 -43 -21 -139 50 -139 81 0 110 97 45 147 -24 19 -65
15 -95 -8z"/>
<path d="M1372 1650 c0 -19 2 -27 5 -17 2 9 2 25 0 35 -3 9 -5 1 -5 -18z"/>
<path d="M471 1634 c0 -11 3 -14 6 -6 3 7 2 16 -1 19 -3 4 -6 -2 -5 -13z"/>
<path d="M481 1603 c-1 -13 46 -53 63 -53 6 0 -3 9 -20 19 -18 11 -34 25 -37
33 -3 8 -6 9 -6 1z"/>
<path d="M8520 1547 c-14 -12 -36 -29 -48 -37 l-23 -15 26 -117 c14 -65 25
-122 25 -127 0 -5 -40 -24 -90 -42 -49 -19 -90 -37 -90 -40 0 -9 93 -19 179
-19 64 0 85 5 167 41 59 26 94 47 94 56 0 8 -7 42 -16 76 -8 33 -16 70 -17 82
-1 14 -30 44 -79 84 -43 34 -80 67 -83 72 -9 13 -17 11 -45 -14z"/>
<path d="M7680 1485 c-35 -36 -70 -65 -77 -65 -22 0 -14 -17 10 -24 12 -3 67
-6 122 -6 l100 0 3 53 c2 52 2 52 -42 80 -24 15 -45 27 -48 27 -2 0 -33 -29
-68 -65z"/>
<path d="M1324 1524 c-18 -14 -18 -15 4 -4 12 6 22 13 22 15 0 8 -5 6 -26 -11z"/>
<path d="M1263 1503 c9 -2 23 -2 30 0 6 3 -1 5 -18 5 -16 0 -22 -2 -12 -5z"/>
<path d="M3985 1432 c-6 -4 -16 -19 -22 -34 -12 -26 -11 -28 10 -28 21 0 77
46 77 63 0 9 -52 9 -65 -1z"/>
<path d="M5014 1409 c-24 -47 -4 -57 40 -19 44 39 45 50 6 50 -23 0 -33 -7
-46 -31z"/>
<path d="M8044 1291 l-40 -119 29 -6 c16 -3 75 -6 132 -6 l102 0 12 38 c12 35
10 42 -29 125 l-41 87 -63 0 -63 0 -39 -119z"/>
<path d="M2492 1340 c-13 -6 -30 -26 -38 -46 -20 -49 -5 -94 47 -135 22 -17
39 -39 39 -51 0 -17 -6 -19 -42 -16 -42 3 -43 3 -39 -27 4 -43 7 -45 55 -45
52 0 92 27 101 68 8 40 -7 73 -56 119 -30 29 -40 46 -35 58 5 14 13 16 41 11
34 -7 35 -6 35 23 0 46 -49 64 -108 41z"/>
<path d="M3058 1334 c-54 -29 -80 -123 -58 -213 15 -63 55 -101 106 -101 77 0
114 45 114 137 l0 44 -52 -3 c-43 -2 -54 -7 -56 -22 -3 -11 3 -25 13 -32 21
-16 16 -48 -9 -52 -31 -6 -46 26 -46 94 0 44 5 67 16 78 19 20 23 20 44 1 15
-13 22 -14 46 -3 16 6 30 13 32 14 10 6 -22 46 -48 59 -36 19 -67 19 -102 -1z"/>
<path d="M3590 1333 c-70 -36 -99 -145 -61 -228 26 -57 53 -77 111 -83 l50 -5
0 42 c0 39 -1 41 -24 35 -19 -4 -32 1 -50 20 -30 29 -34 81 -11 126 13 25 22
30 51 30 35 0 35 1 32 38 -3 33 -6 37 -33 40 -16 1 -46 -6 -65 -15z"/>
<path d="M3922 1325 c-56 -47 -70 -165 -29 -245 18 -37 29 -47 59 -54 90 -22
148 36 148 152 0 104 -35 159 -107 169 -32 4 -45 0 -71 -22z m94 -79 c3 -12 4
-48 2 -80 -3 -66 -23 -91 -52 -67 -22 19 -23 143 -1 165 19 19 43 11 51 -18z"/>
<path d="M5228 1335 c-63 -34 -55 -124 16 -178 20 -16 36 -37 36 -48 0 -18 -5
-20 -42 -17 -42 3 -43 3 -40 -27 4 -36 16 -45 63 -45 67 0 113 62 90 122 -5
14 -28 43 -52 65 -30 29 -40 46 -35 58 5 14 13 16 41 11 34 -7 35 -6 35 27 0
27 -5 36 -22 41 -35 9 -61 6 -90 -9z"/>
<path d="M6025 1338 c-33 -19 -44 -41 -45 -84 0 -36 6 -47 45 -85 25 -24 45
-52 45 -63 0 -16 -6 -18 -40 -13 -40 5 -40 5 -40 -28 0 -37 12 -45 67 -45 25
0 43 8 64 29 48 49 34 107 -41 170 -24 20 -32 33 -27 45 6 15 14 17 42 12 34
-7 35 -6 35 27 0 27 -5 36 -22 41 -34 9 -61 7 -83 -6z"/>
<path d="M7011 1338 c-60 -32 -87 -131 -62 -225 17 -62 39 -84 94 -90 83 -10
127 44 127 156 0 100 -35 157 -101 167 -19 2 -45 -1 -58 -8z m75 -92 c3 -12 4
-48 2 -80 -3 -66 -23 -91 -52 -67 -22 19 -23 143 -1 165 19 19 43 11 51 -18z"/>
<path d="M7633 1340 c-81 -32 -95 -233 -22 -295 55 -45 131 -29 164 35 20 39
20 171 0 210 -26 50 -88 72 -142 50z m74 -91 c14 -26 15 -88 4 -129 -8 -29
-42 -38 -61 -16 -17 22 -10 154 10 166 21 13 33 8 47 -21z"/>
<path d="M1542 1183 l3 -158 33 -1 c31 -1 32 0 32 40 0 23 1 93 3 156 l2 115
-38 3 -38 3 3 -158z"/>
<path d="M1682 1183 l3 -158 35 0 35 0 0 83 c0 45 2 82 5 82 3 0 21 -35 40
-76 37 -80 49 -93 90 -90 l25 1 3 158 3 157 -35 0 -35 0 -3 -86 -3 -85 -45 85
c-44 85 -45 86 -83 86 l-38 0 3 -157z"/>
<path d="M1964 1323 c26 -90 61 -207 75 -247 15 -45 19 -50 48 -52 32 -2 32
-2 58 84 14 48 35 114 46 146 26 81 25 86 -16 86 -33 0 -35 -2 -49 -51 -9 -28
-18 -67 -22 -87 -11 -63 -16 -58 -44 39 l-26 94 -38 3 c-32 3 -37 1 -32 -15z"/>
<path d="M2252 1183 l3 -158 73 -3 72 -3 0 35 c0 33 -2 35 -37 38 -33 3 -38 6
-38 28 0 21 6 26 33 28 31 3 33 6 30 35 -2 27 -8 33 -33 37 -22 4 -30 11 -30
25 0 16 8 21 38 23 35 3 37 5 37 38 l0 34 -75 0 -76 0 3 -157z"/>
<path d="M2648 1335 c-2 -3 -3 -18 0 -34 3 -20 11 -31 24 -33 19 -3 20 -10 19
-121 -2 -127 2 -136 54 -123 25 6 25 7 25 126 l0 120 25 0 c22 0 25 4 25 35
l0 35 -83 0 c-46 0 -86 -2 -89 -5z"/>
<path d="M2869 1336 c-2 -2 -3 -74 -1 -159 l3 -154 32 1 32 1 3 158 3 157 -34
0 c-19 0 -36 -2 -38 -4z"/>
<path d="M3310 1258 c-11 -46 -30 -114 -40 -153 -10 -38 -16 -73 -14 -77 4 -6
29 -5 66 1 4 0 8 11 10 24 3 19 9 22 43 22 34 0 40 -3 43 -23 4 -27 23 -37 56
-28 l23 6 -27 102 c-15 57 -34 127 -41 156 l-13 52 -42 0 -42 0 -22 -82z m83
-108 c1 -9 -8 -16 -21 -18 -23 -3 -23 -2 -17 45 10 74 17 83 27 33 5 -25 10
-52 11 -60z"/>
<path d="M3742 1183 l3 -157 33 -2 32 -2 0 159 0 159 -35 0 -36 0 3 -157z"/>
<path d="M4154 1327 c-2 -7 -3 -78 -2 -157 l3 -145 35 0 35 0 3 83 3 84 43
-83 c42 -79 46 -83 77 -84 l34 0 3 158 3 157 -36 0 -35 0 -1 -87 0 -88 -45 88
c-43 84 -45 87 -79 87 -20 0 -38 -6 -41 -13z"/>
<path d="M4600 1338 c-5 -27 -29 -271 -30 -290 0 -22 4 -26 23 -24 40 4 47 15
48 79 1 34 5 76 9 92 l7 30 8 -40 c4 -22 13 -67 19 -100 10 -51 15 -60 34 -61
30 -2 38 16 53 113 14 91 29 101 30 20 0 -29 3 -69 7 -91 6 -35 10 -39 41 -42
l34 -4 -7 62 c-4 35 -12 107 -18 161 l-11 97 -48 0 -48 0 -12 -75 c-12 -75
-29 -101 -29 -44 0 16 -5 50 -11 75 -11 44 -12 44 -55 44 -24 0 -44 -1 -44 -2z"/>
<path d="M4961 1218 c-18 -68 -36 -136 -41 -152 -12 -37 -5 -48 28 -42 15 2
30 5 34 5 4 1 8 11 10 24 3 19 9 22 43 22 33 0 40 -4 45 -25 5 -21 12 -25 40
-25 19 0 34 5 34 10 -1 6 -19 76 -40 158 l-38 147 -42 0 -41 0 -32 -122z m93
-80 c-3 -5 -14 -8 -25 -8 -19 0 -20 4 -14 43 13 81 17 85 31 27 7 -30 10 -58
8 -62z"/>
<path d="M5532 1183 l3 -158 58 2 c31 1 66 7 78 13 38 21 59 70 59 138 0 114
-44 162 -149 162 l-52 0 3 -157z m115 57 c26 -51 13 -119 -27 -140 -19 -10
-20 -7 -20 80 0 81 2 91 17 88 10 -2 23 -14 30 -28z"/>
<path d="M5790 1182 l0 -158 68 0 67 1 3 33 c3 31 2 32 -32 32 -33 0 -36 2
-36 30 0 27 3 30 30 30 28 0 30 3 30 35 0 32 -2 35 -30 35 -25 0 -30 4 -30 25
0 22 4 25 35 25 33 0 35 2 35 35 l0 35 -70 0 -70 0 0 -158z"/>
<path d="M6217 1193 c-21 -82 -37 -154 -37 -161 0 -9 11 -12 32 -10 25 2 34 9
38 28 5 21 12 25 47 28 39 3 42 1 45 -25 3 -24 8 -28 35 -30 18 -1 35 2 37 6
3 4 -13 74 -35 157 -21 82 -39 150 -39 152 0 1 -19 2 -43 2 l-42 0 -38 -147z
m97 -15 c7 -44 5 -48 -13 -48 -28 0 -30 8 -19 69 12 59 22 53 32 -21z"/>
<path d="M6462 1183 l3 -158 30 0 c30 0 30 1 35 65 l5 65 18 -39 c10 -22 20
-50 23 -63 4 -13 9 -24 13 -24 42 -7 71 -7 71 1 0 6 -11 38 -25 71 l-25 61 20
26 c30 37 26 87 -9 123 -27 26 -36 29 -95 29 l-67 0 3 -157z m106 85 c18 -18
15 -46 -7 -57 -24 -13 -31 -5 -31 36 0 34 16 43 38 21z"/>
<path d="M6710 1180 c0 -159 0 -160 23 -160 37 0 46 13 49 75 l3 60 24 -60
c13 -33 26 -62 27 -64 7 -8 63 -10 68 -2 3 5 -6 36 -21 69 l-26 61 22 27 c31
39 28 89 -8 125 -27 26 -36 29 -95 29 l-66 0 0 -160z m110 81 c13 -25 4 -48
-21 -54 -16 -4 -19 0 -19 34 0 43 21 54 40 20z"/>
<path d="M7230 1181 l0 -159 58 3 c31 1 59 3 62 4 3 0 5 16 4 33 -1 28 -5 33
-27 36 l-27 3 0 120 0 119 -35 0 -35 0 0 -159z"/>
<path d="M7400 1186 c0 -114 3 -155 13 -158 6 -3 35 -5 62 -4 l50 1 3 38 c3
35 2 37 -27 37 l-31 0 0 120 0 120 -35 0 -35 0 0 -154z"/>
<path d="M7822 1320 c0 -14 2 -19 5 -12 2 6 2 18 0 25 -3 6 -5 1 -5 -13z"/>
<path d="M1860 811 l0 -161 51 0 c103 0 152 50 153 155 1 106 -40 153 -142
162 l-62 6 0 -162z m104 76 c27 -20 34 -108 12 -142 -9 -14 -23 -25 -31 -25
-12 0 -15 17 -15 90 0 50 4 90 8 90 5 0 16 -6 26 -13z"/>
<path d="M2120 810 l0 -160 70 0 70 0 0 35 c0 33 -2 35 -35 35 -31 0 -35 3
-35 25 0 21 5 25 30 25 28 0 30 3 30 35 0 32 -2 35 -30 35 -27 0 -30 3 -30 30
0 28 3 30 35 30 33 0 35 2 35 35 l0 35 -70 0 -70 0 0 -160z"/>
<path d="M2440 810 l0 -160 35 0 35 0 0 60 c0 54 2 60 20 60 29 0 78 27 90 49
15 29 12 78 -6 106 -18 28 -68 45 -131 45 l-43 0 0 -160z m101 90 c21 -12 25
-40 7 -58 -24 -24 -38 -13 -38 28 0 43 2 45 31 30z"/>
<path d="M2684 957 c-2 -7 -3 -78 -2 -157 l3 -145 38 -3 39 -3 -4 60 c-1 32
-1 62 2 65 3 3 17 -24 30 -59 24 -64 25 -65 62 -65 21 0 38 2 38 4 0 2 -11 29
-25 60 -30 68 -30 71 -5 103 41 52 12 123 -58 143 -52 14 -112 13 -118 -3z
m104 -56 c19 -11 11 -65 -9 -69 -12 -2 -18 6 -22 30 -7 46 2 58 31 39z"/>
<path d="M2974 955 c-55 -38 -73 -170 -33 -251 45 -95 169 -78 199 27 24 83 2
192 -45 223 -30 20 -94 21 -121 1z m86 -74 c5 -11 10 -47 10 -80 0 -69 -18
-98 -51 -81 -16 9 -19 22 -19 83 0 72 10 97 37 97 7 0 17 -9 23 -19z"/>
<path d="M3246 939 c-106 -92 -53 -291 78 -293 40 -1 41 0 44 37 3 36 3 37
-32 37 -44 0 -66 29 -66 88 0 54 37 97 76 88 22 -6 24 -4 24 34 l0 40 -45 0
c-35 0 -51 -6 -79 -31z"/>
<path d="M3420 810 l0 -160 70 0 70 0 0 35 c0 33 -2 35 -35 35 -31 0 -35 3
-35 25 0 21 5 25 30 25 28 0 30 3 30 35 0 32 -2 35 -30 35 -27 0 -30 3 -30 30
0 28 3 30 35 30 33 0 35 2 35 35 l0 35 -70 0 -70 0 0 -160z"/>
<path d="M3635 944 c-18 -19 -25 -38 -25 -66 0 -34 7 -46 51 -88 34 -32 49
-55 46 -65 -7 -17 -40 -20 -68 -5 -17 10 -19 7 -19 -29 0 -38 1 -39 39 -46 44
-7 94 12 111 44 23 44 12 80 -40 135 -62 66 -64 81 -9 73 l40 -5 -3 36 c-3 36
-4 37 -50 40 -41 3 -51 -1 -73 -24z"/>
<path d="M3868 951 c-29 -23 -48 -80 -48 -142 0 -106 41 -164 115 -164 74 0
115 58 115 162 0 66 -27 135 -58 152 -33 18 -97 13 -124 -8z m92 -65 c13 -17
17 -109 6 -142 -8 -25 -39 -37 -55 -21 -15 15 -14 150 1 165 16 16 33 15 48
-2z"/>
<path d="M4132 958 c-12 -6 -27 -27 -33 -48 -14 -45 2 -81 57 -133 26 -24 35
-40 30 -52 -6 -17 -15 -17 -66 -4 -11 3 -15 -5 -15 -30 0 -29 5 -36 29 -44 45
-15 99 6 121 46 25 47 14 79 -46 137 -58 56 -57 75 2 67 38 -5 39 -5 39 28 0
21 -6 35 -16 39 -24 9 -76 6 -102 -6z"/>
<path d="M4417 964 c-3 -4 12 -42 33 -85 36 -71 40 -86 40 -154 l0 -75 35 0
35 0 0 65 c0 56 6 78 40 150 22 47 40 89 40 95 0 5 -16 10 -36 10 -36 0 -37
-1 -69 -85 -6 -17 -10 -11 -27 33 -19 48 -23 52 -53 52 -17 0 -34 -3 -38 -6z"/>
<path d="M4826 958 c-3 -7 -10 -67 -16 -133 -6 -66 -13 -132 -16 -147 -5 -26
-3 -28 30 -28 25 0 36 5 37 15 1 8 3 20 4 25 1 6 3 42 4 80 0 39 5 70 9 70 4
0 16 -42 27 -92 19 -87 22 -93 46 -96 26 -3 27 -1 45 92 9 52 21 93 26 90 4
-3 8 -31 8 -63 0 -32 3 -73 6 -90 6 -27 10 -31 41 -31 l34 0 -6 53 c-3 28 -12
99 -18 157 l-12 105 -47 3 -46 3 -11 -51 c-6 -28 -11 -61 -11 -74 0 -53 -15
-31 -30 41 l-15 78 -43 3 c-28 2 -44 -1 -46 -10z"/>
<path d="M5224 958 c-7 -10 -82 -288 -84 -306 0 -2 17 -2 38 0 30 2 38 7 40
26 3 20 8 23 45 20 35 -2 43 -7 45 -25 3 -19 10 -23 38 -23 43 0 43 0 -4 175
l-38 140 -36 3 c-22 2 -39 -2 -44 -10z m66 -195 c0 -2 -12 -3 -26 -3 -24 0
-25 1 -18 48 3 26 9 51 12 57 4 7 24 -57 32 -102z"/>
<path d="M5462 954 c-12 -8 -29 -28 -37 -44 -21 -40 -20 -159 2 -204 20 -42
72 -71 115 -62 16 3 37 0 48 -6 26 -17 54 6 38 31 -8 14 -8 30 0 64 25 99 1
201 -54 225 -35 17 -86 15 -112 -4z m88 -73 c5 -11 10 -41 10 -66 0 -37 -3
-46 -14 -42 -21 8 -36 -15 -29 -44 6 -21 4 -22 -9 -11 -39 31 -28 182 12 182
11 0 24 -9 30 -19z"/>
<path d="M5692 830 c3 -126 5 -142 24 -161 29 -28 92 -36 132 -15 42 22 53 68
50 203 l-3 108 -34 0 -34 0 2 -107 c2 -118 -7 -151 -42 -146 -21 3 -22 8 -25
131 l-3 127 -35 0 -36 0 4 -140z"/>
<path d="M5970 966 c-3 -2 -4 -74 -2 -160 l3 -156 35 0 35 0 -3 158 -3 157
-30 3 c-17 2 -33 1 -35 -2z"/>
<path d="M6110 810 l0 -160 35 0 35 0 0 88 0 87 44 -85 c42 -81 45 -85 80 -88
l36 -3 0 161 0 161 -32 -3 -33 -3 -5 -83 -5 -83 -42 85 c-42 84 -44 86 -78 86
l-35 0 0 -160z"/>
<path d="M6467 963 c-8 -13 -77 -282 -77 -298 0 -10 11 -15 35 -15 31 0 35 3
35 25 0 23 4 25 45 25 41 0 45 -2 45 -25 0 -23 4 -25 41 -25 34 0 40 3 35 18
-2 9 -19 71 -36 136 -44 166 -42 161 -83 164 -20 1 -38 -1 -40 -5z m57 -165
c7 -36 6 -38 -20 -38 -18 0 -25 4 -21 14 3 7 9 35 13 62 8 53 12 47 28 -38z"/>
<path d="M6670 810 l0 -160 35 0 34 0 3 68 3 67 25 -65 c25 -62 27 -65 63 -68
20 -2 37 -1 37 3 0 3 -11 33 -25 66 l-25 61 20 26 c25 31 26 92 3 121 -19 24
-75 40 -135 41 l-38 0 0 -160z m115 69 c7 -22 -10 -49 -31 -49 -14 0 -21 60
-8 73 10 10 33 -4 39 -24z"/>
<path d="M6920 811 l0 -161 35 0 36 0 -3 158 -3 157 -32 3 -33 3 0 -160z"/>
<path d="M7115 958 c-3 -7 -23 -79 -44 -160 l-39 -148 38 0 c32 0 39 4 42 23
2 18 10 23 46 25 39 3 42 1 42 -22 0 -24 4 -26 41 -26 34 0 40 3 35 18 -3 9
-22 81 -42 160 l-37 142 -39 0 c-22 0 -41 -5 -43 -12z m59 -160 c7 -36 5 -38
-19 -38 -14 0 -25 2 -25 5 0 2 5 28 11 57 13 57 19 52 33 -24z"/>
<path d="M7335 945 c-19 -18 -25 -35 -25 -66 0 -37 6 -48 45 -86 25 -23 45
-50 45 -58 0 -22 -27 -30 -56 -17 -23 11 -24 10 -24 -27 0 -36 2 -39 35 -45
72 -14 135 45 120 112 -3 17 -26 48 -51 71 -57 54 -59 76 -4 68 40 -5 40 -5
40 28 0 37 -12 45 -66 45 -24 0 -43 -8 -59 -25z"/>
</g>
</svg>
